PathFileType	4	(X/Y/Z)	c:/Users/goper/Files/vsCode/490R/osim_files/A06/A06_Static.trc
DataRate	CameraRate	NumFrames	NumMarkers	Units                	OrigDataRate	OrigDataStartFrame	OrigNumFrames
120.00	120.00	4	36	mm	120.0	1	1315
                Frame#	Time	LPSIS			LASIS			LTH1			LTH2			LTH3			LTH4			LLFE			LMFE			LSH1			LSH2			LSH3			LSH4			LLMAL			LMMAL			LCAL			LMTP5			LTOE			LMTP1			RPSIS			RASIS			RTH1			RTH2			RTH3			RTH4			RLFE			RMFE			RSH1			RSH2			RSH3			RSH4			RLMAL			RMMAL			RCAL			RMTP1			RTOE			RMTP5		
		X1	Y1	Z1	X2	Y2	Z2	X3	Y3	Z3	X4	Y4	Z4	X5	Y5	Z5	X6	Y6	Z6	X7	Y7	Z7	X8	Y8	Z8	X9	Y9	Z9	X10	Y10	Z10	X11	Y11	Z11	X12	Y12	Z12	X13	Y13	Z13	X14	Y14	Z14	X15	Y15	Z15	X16	Y16	Z16	X17	Y17	Z17	X18	Y18	Z18	X19	Y19	Z19	X20	Y20	Z20	X21	Y21	Z21	X22	Y22	Z22	X23	Y23	Z23	X24	Y24	Z24	X25	Y25	Z25	X26	Y26	Z26	X27	Y27	Z27	X28	Y28	Z28	X29	Y29	Z29	X30	Y30	Z30	X31	Y31	Z31	X32	Y32	Z32	X33	Y33	Z33	X34	Y34	Z34	X35	Y35	Z35	X36	Y36	Z36

1	0.00000	-292.20874	986.00330	427.03149	-106.88899	948.84753	346.51721	-216.10178	600.31622	300.12830	-213.19237	557.60712	304.61591	-153.04425	594.45856	313.78467	-161.48872	552.54938	315.84561	-196.59683	480.87579	321.27066	-197.73347	470.48792	429.70917	-263.36700	390.94916	304.68268	-258.46414	345.39270	297.33963	-201.20985	390.66071	309.87006	-203.96449	348.75333	304.65958	-253.53893	92.92912	333.56616	-234.69624	111.17311	416.41840	-314.44714	78.40723	383.72894	-134.37215	42.03173	312.30954	-93.93348	61.96994	367.69260	-117.68733	55.10347	407.06525	-281.38190	996.44171	557.88147	-107.16742	952.36340	610.93665	-240.09062	601.49866	649.34436	-239.07812	559.10583	649.76807	-177.73325	596.77319	641.38434	-184.47762	553.00110	645.81207	-224.31116	440.13171	629.78284	-224.82864	437.72717	541.03375	-260.03271	286.77188	623.66638	-263.49210	239.11127	624.17261	-200.70471	277.75867	611.66333	-212.54594	230.75380	618.11340	-280.13461	102.74963	638.42645	-267.39478	101.61665	555.11615	-337.87204	81.43432	592.18707	-136.34998	53.72502	562.24780	-120.67220	64.95406	602.37494	-147.27682	51.68152	649.73535
2	0.00833	-292.20792	985.98602	427.02625	-106.85763	948.83240	346.48294	-216.03091	600.31226	300.09521	-213.09247	557.61310	304.58563	-152.96819	594.46344	313.73431	-161.42999	552.53516	315.78323	-196.54805	480.86331	321.25079	-197.72275	470.40210	429.70349	-263.27078	390.95566	304.66077	-258.39896	345.41156	297.32605	-201.12863	390.62906	309.87207	-203.88686	348.73373	304.66284	-253.49921	92.93255	333.56958	-234.74792	111.15611	416.44336	-314.44650	78.40654	383.72406	-134.40556	42.00363	312.32840	-93.95210	61.91590	367.71231	-117.74935	55.04932	407.09314	-281.37173	996.42108	557.88885	-107.19653	952.32288	610.91394	-240.13516	601.50848	649.36102	-239.09256	559.10138	649.77454	-177.81268	596.71167	641.46021	-184.48901	552.98889	645.82214	-224.38089	440.13718	629.78339	-224.76576	437.71719	541.00848	-260.09131	286.76123	623.66034	-263.58105	239.12010	624.20966	-200.79808	277.68747	611.71680	-212.60968	230.70038	618.15326	-280.09500	102.61575	638.33307	-267.39130	101.59735	555.12317	-337.94583	81.44869	592.21252	-136.34543	53.69137	562.24841	-120.68365	64.91640	602.37244	-147.34172	51.65916	649.79688
3	0.01667	-292.16391	985.97931	427.00266	-106.80161	948.87335	346.43826	-215.98419	600.33307	300.07132	-212.99841	557.62244	304.54831	-152.87381	594.45575	313.67285	-161.33218	552.57562	315.72571	-196.47859	480.85251	321.21103	-197.59595	470.41663	429.68872	-263.18286	390.96893	304.62518	-258.33670	345.40817	297.31006	-201.04950	390.63367	309.86685	-203.81450	348.73645	304.65686	-253.48897	92.95204	333.57397	-234.68555	111.19208	416.42834	-314.37885	78.40622	383.72421	-134.37558	42.01052	312.30316	-93.94004	61.92505	367.70322	-117.71470	55.07639	407.08115	-281.31204	996.43201	557.86072	-107.07129	952.37201	610.86920	-240.06042	601.54755	649.33392	-239.03471	559.11749	649.74622	-177.71547	596.74420	641.39288	-184.43518	552.99396	645.79633	-224.29607	440.16040	629.75549	-224.76837	437.72238	541.01007	-259.79761	286.67648	623.50604	-263.50256	239.14600	624.18597	-200.73880	277.68970	611.67389	-212.52768	230.73997	618.12354	-280.05191	102.65588	638.29669	-267.36746	101.61470	555.10413	-337.88052	81.45148	592.19806	-136.34360	53.69175	562.24530	-120.68576	64.90800	602.37115	-147.30257	51.68130	649.77960
4	0.02500	-292.12769	985.94885	427.00058	-106.79105	948.89020	346.39258	-215.90677	600.33850	300.03897	-212.96657	557.63104	304.52469	-152.79312	594.47198	313.60556	-161.29991	552.56470	315.66919	-196.41943	480.86945	321.16519	-197.53908	470.39984	429.67410	-263.12863	390.99805	304.60483	-258.27524	345.43307	297.28180	-200.97813	390.63965	309.84866	-203.75169	348.74460	304.63620	-253.47638	92.97680	333.56387	-234.66776	111.21354	416.42670	-314.42529	78.44250	383.72083	-134.35770	42.04050	312.28784	-93.89391	61.95478	367.67258	-117.70608	55.09072	407.07016	-281.47055	996.45312	557.86652	-107.02771	952.39880	610.80829	-239.97862	601.56464	649.27026	-239.00099	559.15430	649.70099	-177.65555	596.78180	641.32739	-184.38243	553.02435	645.75128	-224.25529	440.19550	629.71863	-224.76176	437.74506	540.97736	-260.02304	286.82462	623.61646	-263.47153	239.17593	624.15295	-200.68393	277.73938	611.65845	-212.50278	230.75240	618.08594	-280.03226	102.69362	638.29266	-267.36594	101.62019	555.11670	-337.84213	81.45299	592.18030	-136.35065	53.71667	562.21826	-120.66435	64.95038	602.37262	-147.28717	51.70920	649.75128
